# xmcd
#
# Track frame offsets: 
#        150
#        57316
#        92306
#        115874
#        136759
#        154735
#        161772
#        180228
#        196017
#        241625
#
# Disc length: 4370 seconds
#
# Revision: 0
# Processed by: cddbd v1.5.2PL0 Copyright (c) Steve Scherf et al.
# Submitted via: ExactAudioCopy v0.99pb4
#
DISCID=6b11100a
DTITLE=Yonder Mountain String Band - Live At The Fox Theatre, Boulder,
DTITLE=CO 12-31-2000 Disc 2 of 3
DYEAR=2000
DGENRE=Bluegrass
TTITLE0=If You're Ever In Oklahoma>Shenandoah Breakdown>
TTITLE1=Shantytown>If You're Ever In Oklahoma
TTITLE2=My Gal
TTITLE3=Planet Of The Apes/2001 Intro
TTITLE4=Shucking the Corn
TTITLE5=White House Blues
TTITLE6=Old Lang Syne
TTITLE7=Two Hits and the Joint Turned Brown
TTITLE8=Masons Children>
TTITLE9=Peace Of Mind>Dogs Interlude>Peace Of Mind
EXTD=
EXTT0=
EXTT1=
EXTT2=
EXTT3=
EXTT4=
EXTT5=
EXTT6=
EXTT7=
EXTT8=
EXTT9=
PLAYORDER=
